<svg xmlns="http://www.w3.org/2000/svg" viewBox="0 0 64 64" width="64" height="64">
  <defs>
    <linearGradient id="g" x1="0" y1="0" x2="0" y2="1">
      <stop offset="0" stop-color="#e7cd8e"/>
      <stop offset="1" stop-color="#d9b15a"/>
    </linearGradient>
  </defs>
  <rect width="64" height="64" rx="14" fill="#0e1014"/>
  <rect x="1.5" y="1.5" width="61" height="61" rx="12.5" fill="none" stroke="#d9b15a" stroke-opacity="0.35" stroke-width="1.5"/>
  <!-- laurel sprigs -->
  <g fill="none" stroke="url(#g)" stroke-width="2.4" stroke-linecap="round" opacity="0.9">
    <path d="M16 50 Q14 36 20 24"/>
    <path d="M48 50 Q50 36 44 24"/>
  </g>
  <g fill="url(#g)" opacity="0.85">
    <ellipse cx="14.5" cy="42" rx="2.6" ry="1.4" transform="rotate(-35 14.5 42)"/>
    <ellipse cx="15.5" cy="35" rx="2.6" ry="1.4" transform="rotate(-25 15.5 35)"/>
    <ellipse cx="17.5" cy="29" rx="2.6" ry="1.4" transform="rotate(-15 17.5 29)"/>
    <ellipse cx="49.5" cy="42" rx="2.6" ry="1.4" transform="rotate(35 49.5 42)"/>
    <ellipse cx="48.5" cy="35" rx="2.6" ry="1.4" transform="rotate(25 48.5 35)"/>
    <ellipse cx="46.5" cy="29" rx="2.6" ry="1.4" transform="rotate(15 46.5 29)"/>
  </g>
  <!-- the 7 -->
  <text x="32" y="44" text-anchor="middle" font-family="Georgia, 'Times New Roman', serif"
        font-size="34" font-weight="700" fill="url(#g)">7</text>
</svg>
